<svg xmlns="http://www.w3.org/2000/svg" viewBox="0 0 2160 2160" role="img" aria-label="0Labs">
  <path transform="translate(422.0 1800.0)" d="M657.998046875 30.0Q504.66552734375 30.0 388.0826110839844 -35.749847412109375Q271.49969482421875 -101.49969482421875 205.74984741210938 -218.08261108398438Q140.0 -334.66552734375 140.0 -487.998046875V-952.001953125Q140.0 -1105.33447265625 205.74984741210938 -1221.9173889160156Q271.49969482421875 -1338.5003051757812 388.0826110839844 -1404.2501525878906Q504.66552734375 -1470.0 657.998046875 -1470.0Q811.33056640625 -1470.0 927.9134826660156 -1404.2501525878906Q1044.4963989257812 -1338.5003051757812 1110.2462463378906 -1221.9173889160156Q1175.99609375 -1105.33447265625 1175.99609375 -952.001953125V-487.998046875Q1175.99609375 -334.66552734375 1110.2462463378906 -218.08261108398438Q1044.4963989257812 -101.49969482421875 927.9134826660156 -35.749847412109375Q811.33056640625 30.0 657.998046875 30.0ZM657.998046875 -198.9964599609375Q734.1652221679688 -198.9964599609375 795.9156799316406 -235.330078125Q857.6661376953125 -271.6636962890625 893.999755859375 -333.4141540527344Q930.3333740234375 -395.16461181640625 930.3333740234375 -471.331787109375V-970.3348388671875Q930.3333740234375 -1046.5020141601562 893.999755859375 -1108.2524719238281Q857.6661376953125 -1170.0029296875 795.9156799316406 -1206.3365478515625Q734.1652221679688 -1242.670166015625 657.998046875 -1242.670166015625Q581.8308715820312 -1242.670166015625 520.0804138183594 -1206.3365478515625Q458.3299560546875 -1170.0029296875 421.996337890625 -1108.2524719238281Q385.6627197265625 -1046.5020141601562 385.6627197265625 -970.3348388671875V-471.331787109375Q385.6627197265625 -395.16461181640625 421.996337890625 -333.4141540527344Q458.3299560546875 -271.6636962890625 520.0804138183594 -235.330078125Q581.8308715820312 -198.9964599609375 657.998046875 -198.9964599609375Z" fill="#14161C"/>
</svg>
