<svg xmlns="http://www.w3.org/2000/svg" viewBox="60.0 -1550.0 5629.7 1660.0" role="img" aria-label="0Labs">
  <path d="M657.998046875 30.0Q504.66552734375 30.0 388.0826110839844 -35.749847412109375Q271.49969482421875 -101.49969482421875 205.74984741210938 -218.08261108398438Q140.0 -334.66552734375 140.0 -487.998046875V-952.001953125Q140.0 -1105.33447265625 205.74984741210938 -1221.9173889160156Q271.49969482421875 -1338.5003051757812 388.0826110839844 -1404.2501525878906Q504.66552734375 -1470.0 657.998046875 -1470.0Q811.33056640625 -1470.0 927.9134826660156 -1404.2501525878906Q1044.4963989257812 -1338.5003051757812 1110.2462463378906 -1221.9173889160156Q1175.99609375 -1105.33447265625 1175.99609375 -952.001953125V-487.998046875Q1175.99609375 -334.66552734375 1110.2462463378906 -218.08261108398438Q1044.4963989257812 -101.49969482421875 927.9134826660156 -35.749847412109375Q811.33056640625 30.0 657.998046875 30.0ZM657.998046875 -198.9964599609375Q734.1652221679688 -198.9964599609375 795.9156799316406 -235.330078125Q857.6661376953125 -271.6636962890625 893.999755859375 -333.4141540527344Q930.3333740234375 -395.16461181640625 930.3333740234375 -471.331787109375V-970.3348388671875Q930.3333740234375 -1046.5020141601562 893.999755859375 -1108.2524719238281Q857.6661376953125 -1170.0029296875 795.9156799316406 -1206.3365478515625Q734.1652221679688 -1242.670166015625 657.998046875 -1242.670166015625Q581.8308715820312 -1242.670166015625 520.0804138183594 -1206.3365478515625Q458.3299560546875 -1170.0029296875 421.996337890625 -1108.2524719238281Q385.6627197265625 -1046.5020141601562 385.6627197265625 -970.3348388671875V-471.331787109375Q385.6627197265625 -395.16461181640625 421.996337890625 -333.4141540527344Q458.3299560546875 -271.6636962890625 520.0804138183594 -235.330078125Q581.8308715820312 -198.9964599609375 657.998046875 -198.9964599609375ZM1436.0 0V-1440H1676.662841796875V-225.6632080078125H2312.664794921875V0.0ZM2745.3336181640625 30.0Q2627.666748046875 30.0 2546.750030517578 -14.416656494140625Q2465.8333129882812 -58.83331298828125 2424.4166564941406 -132.91659545898438Q2383.0 -206.9998779296875 2383.0 -295.999755859375Q2383.0 -374.33349609375 2409.083709716797 -436.4168395996094Q2435.1674194335938 -498.50018310546875 2489.2510681152344 -544.0832824707031Q2543.334716796875 -589.6663818359375 2628.6678466796875 -618.9993896484375Q2694.335205078125 -640.4993286132812 2781.4190368652344 -657.0826110839844Q2868.5028686523438 -673.6658935546875 2971.1692504882812 -688.2491149902344Q3073.8356323242188 -702.8323364257812 3186.333984375 -719.6654052734375L3099.668701171875 -671.332763671875Q3100.5021362304688 -783.1680297851562 3049.7515563964844 -836.2523498535156Q2999.0009765625 -889.336669921875 2877.666015625 -889.336669921875Q2804.997802734375 -889.336669921875 2737.080780029297 -855.0860290527344Q2669.1637573242188 -820.8353881835938 2641.9969482421875 -738.3343505859375L2421.666748046875 -807.333251953125Q2461.8333129882812 -944.000244140625 2574.583282470703 -1027.0001220703125Q2687.333251953125 -1110.0 2878.332763671875 -1110.0Q3022.4995727539062 -1110.0 3131.666015625 -1063.1663208007812Q3240.8324584960938 -1016.3326416015625 3294.33203125 -908.9993896484375Q3323.3316650390625 -852.3331298828125 3329.3316650390625 -792.8331909179688Q3335.3316650390625 -733.333251953125 3335.3316650390625 -662.6669921875V0.0H3124.0015869140625V-234.3348388671875L3159.001708984375 -195.6690673828125Q3086.00244140625 -79.16815185546875 2988.4183654785156 -24.584075927734375Q2890.8342895507812 30.0 2745.3336181640625 30.0ZM2792.9990234375 -162.3306884765625Q2874.9998779296875 -162.3306884765625 2932.833984375 -191.41433715820312Q2990.6680908203125 -220.49798583984375 3025.3352661132812 -262.0822448730469Q3060.00244140625 -303.66650390625 3071.669189453125 -341.3349609375Q3090.5022583007812 -387.335205078125 3093.4188537597656 -446.7519836425781Q3096.33544921875 -506.16876220703125 3096.33544921875 -543.335205078125L3170.334716796875 -521.0015869140625Q3060.66943359375 -503.50189208984375 2982.585723876953 -490.8353271484375Q2904.5020141601562 -478.16876220703125 2848.8341674804688 -466.7520446777344Q2793.1663208007812 -455.3353271484375 2749.9986572265625 -441.0018310546875Q2708.4984741210938 -425.6685791015625 2679.414581298828 -405.9184265136719Q2650.3306884765625 -386.16827392578125 2634.8302001953125 -360.0010986328125Q2619.3297119140625 -333.83392333984375 2619.3297119140625 -298.9996337890625Q2619.3297119140625 -259.49932861328125 2639.079864501953 -228.58212280273438Q2658.8300170898438 -197.6649169921875 2697.4139099121094 -179.997802734375Q2735.997802734375 -162.3306884765625 2792.9990234375 -162.3306884765625ZM4073.665283203125 30.0Q3915.6656494140625 30.0 3808.9991455078125 -45.16668701171875Q3702.3326416015625 -120.3333740234375 3648.166015625 -249.41671752929688Q3593.9993896484375 -378.50006103515625 3593.9993896484375 -540.3333740234375Q3593.9993896484375 -702.666748046875 3647.8327026367188 -831.5834045410156Q3701.666015625 -960.5000610351562 3806.415985107422 -1035.2500305175781Q3911.1659545898438 -1110.0 4064.6658935546875 -1110.0Q4217.9990234375 -1110.0 4330.748748779297 -1035.7499694824219Q4443.498474121094 -961.4999389648438 4505.248260498047 -832.9165954589844Q4566.998046875 -704.333251953125 4566.998046875 -540.3333740234375Q4566.998046875 -378.3333740234375 4505.914886474609 -249.25003051757812Q4444.831726074219 -120.16668701171875 4334.081878662109 -45.083343505859375Q4223.33203125 30.0 4073.665283203125 30.0ZM3553.3333740234375 0.0V-1440.0H3795.662841796875V-758.3355712890625H3766.330078125V0.0ZM4036.99951171875 -185.6634521484375Q4131.166931152344 -185.6634521484375 4191.917510986328 -232.9971923828125Q4252.6680908203125 -280.3309326171875 4282.3350830078125 -360.8316650390625Q4312.0020751953125 -441.3323974609375 4312.0020751953125 -540.3333740234375Q4312.0020751953125 -638.3343505859375 4281.751800537109 -718.6683959960938Q4251.501525878906 -799.00244140625 4188.751007080078 -846.6694946289062Q4126.00048828125 -894.3365478515625 4028.6663818359375 -894.3365478515625Q3936.8322143554688 -894.3365478515625 3878.83154296875 -849.8361206054688Q3820.8308715820312 -805.335693359375 3793.5804748535156 -725.4183044433594Q3766.330078125 -645.5009155273438 3766.330078125 -540.3333740234375Q3766.330078125 -435.49920654296875 3793.4971313476562 -355.4151306152344Q3820.6641845703125 -275.3310546875 3880.3314819335938 -230.49725341796875Q3939.998779296875 -185.6634521484375 4036.99951171875 -185.6634521484375ZM5164.332763671875 29.6666259765625Q4963.833190917969 29.6666259765625 4839.083282470703 -60.1663818359375Q4714.3333740234375 -149.9993896484375 4687.0 -313.33203125L4932.99609375 -350.9981689453125Q4951.6629638671875 -270.9976806640625 5016.997131347656 -225.16400146484375Q5082.331298828125 -179.330322265625 5181.3323974609375 -179.330322265625Q5267.500549316406 -179.330322265625 5315.251495361328 -213.58102416992188Q5363.00244140625 -247.83172607421875 5363.00244140625 -308.3328857421875Q5363.00244140625 -344.83343505859375 5345.3355712890625 -367.33380126953125Q5327.668701171875 -389.83416748046875 5268.8349609375 -410.83441162109375Q5210.001220703125 -431.83465576171875 5088.0006103515625 -464.3348388671875Q4952.33349609375 -499.6683349609375 4872.250030517578 -541.2516174316406Q4792.166564941406 -582.8348999023438 4757.249908447266 -639.834716796875Q4722.333251953125 -696.8345336914062 4722.333251953125 -778.0009765625Q4722.333251953125 -879.0006103515625 4774.9998779296875 -953.7503967285156Q4827.66650390625 -1028.5001831054688 4923.083038330078 -1069.2500915527344Q5018.499572753906 -1110.0 5147.3326416015625 -1110.0Q5272.9991455078125 -1110.0 5370.582427978516 -1070.9166564941406Q5468.165710449219 -1031.8333129882812 5528.332336425781 -960.0833435058594Q5588.498962402344 -888.3333740234375 5601.66552734375 -791.33349609375L5355.66943359375 -747.0008544921875Q5346.669189453125 -815.8352661132812 5293.084808349609 -855.9192199707031Q5239.500427246094 -896.003173828125 5151.3323974609375 -901.0030517578125Q5066.3311767578125 -905.5029907226562 5014.1636962890625 -875.1690063476562Q4961.9962158203125 -844.8350219726562 4961.9962158203125 -790.3341064453125Q4961.9962158203125 -758.5003051757812 4983.079742431641 -736.5832824707031Q5004.163269042969 -714.666259765625 5067.413482666016 -692.9993896484375Q5130.6636962890625 -671.33251953125 5256.9970703125 -639.33251953125Q5386.497863769531 -605.8323364257812 5463.664855957031 -563.4156799316406Q5540.831848144531 -520.9990234375 5575.248565673828 -462.0824279785156Q5609.665283203125 -403.16583251953125 5609.665283203125 -319.33251953125Q5609.665283203125 -156.49957275390625 5491.3321533203125 -63.416473388671875Q5372.9990234375 29.6666259765625 5164.332763671875 29.6666259765625Z" fill="#14161C"/>
</svg>
